<svg xmlns="http://www.w3.org/2000/svg" viewBox="0 0 64 64" xmlns:c2pa="http://c2pa.org/manifest"><metadata><c2pa:manifest>AAAWgmp1bWIAAAAeanVtZGMycGEAEQAQgAAAqgA4m3EDYzJwYQAAABZcanVtYgAAAEdqdW1kYzJtYQARABCAAACqADibcQN1cm46YzJwYTpmZjc4ZWJmMi1kODVjLTRmMzgtOTUwZC02NTdkYmI2ZjViYWIAAAADl2p1bWIAAAApanVtZGMyYXMAEQAQgAAAqgA4m3EDYzJwYS5hc3NlcnRpb25zAAAAALxqdW1iAAAARGp1bWRjYm9yABEAEIAAAKoAOJtxE2MycGEuaW5ncmVkaWVudC52MwAAAAAYYzJzaNPQ65OT3GDwaZZydEdbhP8AAABwY2JvcqNpZGM6Zm9ybWF0bWltYWdlL3N2Zyt4bWxqaW5zdGFuY2VJRHgseG1wOmlpZDo4NTQ4ZGQ2Yi1kMDMxLTRiMDYtYTljMi03ZTk5YTkzNzBiMTNscmVsYXRpb25zaGlwaHBhcmVudE9mAAAB4mp1bWIAAABBanVtZGNib3IAEQAQgAAAqgA4m3ETYzJwYS5hY3Rpb25zLnYyAAAAABhjMnNor0nl0gTUSCV+3nM0Rg3ICgAAAZljYm9yomdhY3Rpb25zgqJmYWN0aW9ua2MycGEub3BlbmVkanBhcmFtZXRlcnOha2luZ3JlZGllbnRzgaJjdXJseC1zZWxmI2p1bWJmPWMycGEuYXNzZXJ0aW9ucy9jMnBhLmluZ3JlZGllbnQudjNkaGFzaFgggpvJ6liEC3Zc/OzUhN5TsH+zP50nhm4ycH0YcP7lcRmkZmFjdGlvbngdY29tLmFudGhyb3BpYy5jbGF1ZGUucHJvdmlkZWRqcGFyYW1ldGVyc6F4H2NvbS5hbnRocm9waWMub3JpZ2luLWNvbmZpZGVuY2VndW5rbm93bmtkZXNjcmlwdGlvbnhmQ2xhdWRlIHByb3ZpZGVkIHRoaXMgZmlsZSBhdCB0aGUgcmVxdWVzdCBvZiBhIHVzZXIgYW5kIG1heSBoYXZlIGNyZWF0ZWQgb3IgbW9kaWZpZWQgdGhlIGZpbGUgY29udGVudHMubXNvZnR3YXJlQWdlbnShZG5hbWVmQ2xhdWRlcmFsbEFjdGlvbnNJbmNsdWRlZPUAAADIanVtYgAAAEBqdW1kY2JvcgARABCAAACqADibcRNjMnBhLmhhc2guZGF0YQAAAAAYYzJzaKZo1BHweXbS6uR2tZLvZm8AAACAY2JvcqVjYWxnZnNoYTI1NmNwYWRNAAAAAAAAAAAAAAAAAGRoYXNoWCAtEDCSJxS+Vbqy+MYLZUzQEUh03eTQTrsnkPPxiPXWjWRuYW1lbmp1bWJmIG1hbmlmZXN0amV4Y2x1c2lvbnOBomVzdGFydBh7Zmxlbmd0aBkeBAAAAj5qdW1iAAAAJ2p1bWRjMmNsABEAEIAAAKoAOJtxA2MycGEuY2xhaW0udjIAAAACD2Nib3KlY2FsZ2ZzaGEyNTZpc2lnbmF0dXJleE1zZWxmI2p1bWJmPS9jMnBhL3VybjpjMnBhOmZmNzhlYmYyLWQ4NWMtNGYzOC05NTBkLTY1N2RiYjZmNWJhYi9jMnBhLnNpZ25hdHVyZWppbnN0YW5jZUlEeCx4bXA6aWlkOmUxN2MyZWE3LTFiMmItNGQ1MS1iZGI1LWZiMzc4YTFjNTJmZHJjcmVhdGVkX2Fzc2VydGlvbnODomN1cmx4LXNlbGYjanVtYmY9YzJwYS5hc3NlcnRpb25zL2MycGEuaW5ncmVkaWVudC52M2RoYXNoWCCCm8nqWIQLdlz87NSE3lOwf7M/nSeGbjJwfRhw/uVxGaJjdXJseCpzZWxmI2p1bWJmPWMycGEuYXNzZXJ0aW9ucy9jMnBhLmFjdGlvbnMudjJkaGFzaFggMX/Ro5fW3YPD9lZi/nyfCFIP81/0VvvG9Qd9k+QyUUCiY3VybHgpc2VsZiNqdW1iZj1jMnBhLmFzc2VydGlvbnMvYzJwYS5oYXNoLmRhdGFkaGFzaFgghaOP0ItDquRIaVlC8LKuLSFRoV08jUXGPuMyKo/lXQx0Y2xhaW1fZ2VuZXJhdG9yX2luZm+jZG5hbWVvQW50aHJvcGljIEZpbGVzZ3ZlcnNpb25lMS4wLjBrc3BlY1ZlcnNpb25lMi40LjAAABA4anVtYgAAAChqdW1kYzJjcwARABCAAACqADibcQNjMnBhLnNpZ25hdHVyZQAAABAIY2JvctKEWQISogEmGCFZAgowggIGMIIBjaADAgECAhRA5aAK7sI50L64g/oGQgU9Z1UTADAKBggqhkjOPQQDAzBJMRcwFQYDVQQKEw5BbnRocm9waWMsIFBCQzEuMCwGA1UEAxMlQW50aHJvcGljIENvbnRlbnQgQ3JlZGVudGlhbHMgUm9vdCBDQTAeFw0yNjA4MDcxODQzNTZaFw0yODA4MDYxOTQzNTZaMEQxFzAVBgNVBAoTDkFudGhyb3BpYywgUEJDMSkwJwYDVQQDEyBBbnRocm9waWMgQ2xhdWRlIENvbnRlbnQgU2lnbmluZzBZMBMGByqGSM49AgEGCCqGSM49AwEHA0IABJh6CmvLUBgFFNU0vUKlOVtE6djd17L5SuwX0LemFisBM3dkd/3cyjxFA3Qo5S46fX0/ihY0VZ7mfb9KF703t5OjWDBWMA4GA1UdDwEB/wQEAwIHgDAVBgNVHSUEDjAMBgorBgEEAYPoXgIBMAwGA1UdEwEB/wQCMAAwHwYDVR0jBBgwFoAUzlHiBIFOZFsj+OPEz5o+nMHXXMIwCgYIKoZIzj0EAwMDZwAwZAIwMXMdFJ4BetLLVY7ORuE9noqbbAZOZn/aArXyTwFAZfKrPzxF2vPoJNf1+UCdg1XGAjBwX1zd9WGqYkqmL5SFqw1QySjr1zJfpJM9+1rdDwSPLMOPOjKuiXjoU/pUUeG9RwmhY3BhZFkNngAAAAAAAAAAAAAAAAAAAAAAAAAAAAAAAAAAAAAAAAAAAAAAAAAAAAAAAAAAAAAAAAAAAAAAAAAAAAAAAAAAAAAAAAAAAAAAAAAAAAAAAAAAAAAAAAAAAAAAAAAAAAAAAAAAAAAAAAAAAAAAAAAAAAAAAAAAAAAAAAAAAAAAAAAAAAAAAAAAAAAAAAAAAAAAAAAAAAAAAAAAAAAAAAAAAAAAAAAAAAAAAAAAAAAAAAAAAAAAAAAAAAAAAAAAAAAAAAAAAAAAAAAAAAAAAAAAAAAAAAAAAAAAAAAAAAAAAAAAAAAAAAAAAAAAAAAAAAAAAAAAAAAAAAAAAAAAAAAAAAAAAAAAAAAAAAAAAAAAAAAAAAAAAAAAAAAAAAAAAAAAAAAAAAAAAAAAAAAAAAAAAAAAAAAAAAAAAAAAAAAAAAAAAAAAAAAAAAAAAAAAAAAAAAAAAAAAAAAAAAAAAAAAAAAAAAAAAAAAAAAAAAAAAAAAAAAAAAAAAAAAAAAAAAAAAAAAAAAAAAAAAAAAAAAAAAAAAAAAAAAAAAAAAAAAAAAAAAAAAAAAAAAAAAAAAAAAAAAAAAAAAAAAAAAAAAAAAAAAAAAAAAAAAAAAAAAAAAAAAAAAAAAAAAAAAAAAAAAAAAAAAAAAAAAAAAAAAAAAAAAAAAAAAAAAAAAAAAAAAAAAAAAAAAAAAAAAAAAAAAAAAAAAAAAAAAAAAAAAAAAAAAAAAAAAAAAAAAAAAAAAAAAAAAAAAAAAAAAAAAAAAAAAAAAAAAAAAAAAAAAAAAAAAAAAAAAAAAAAAAAAAAAAAAAAAAAAAAAAAAAAAAAAAAAAAAAAAAAAAAAAAAAAAAAAAAAAAAAAAAAAAAAAAAAAAAAAAAAAAAAAAAAAAAAAAAAAAAAAAAAAAAAAAAAAAAAAAAAAAAAAAAAAAAAAAAAAAAAAAAAAAAAAAAAAAAAAAAAAAAAAAAAAAAAAAAAAAAAAAAAAAAAAAAAAAAAAAAAAAAAAAAAAAAAAAAAAAAAAAAAAAAAAAAAAAAAAAAAAAAAAAAAAAAAAAAAAAAAAAAAAAAAAAAAAAAAAAAAAAAAAAAAAAAAAAAAAAAAAAAAAAAAAAAAAAAAAAAAAAAAAAAAAAAAAAAAAAAAAAAAAAAAAAAAAAAAAAAAAAAAAAAAAAAAAAAAAAAAAAAAAAAAAAAAAAAAAAAAAAAAAAAAAAAAAAAAAAAAAAAAAAAAAAAAAAAAAAAAAAAAAAAAAAAAAAAAAAAAAAAAAAAAAAAAAAAAAAAAAAAAAAAAAAAAAAAAAAAAAAAAAAAAAAAAAAAAAAAAAAAAAAAAAAAAAAAAAAAAAAAAAAAAAAAAAAAAAAAAAAAAAAAAAAAAAAAAAAAAAAAAAAAAAAAAAAAAAAAAAAAAAAAAAAAAAAAAAAAAAAAAAAAAAAAAAAAAAAAAAAAAAAAAAAAAAAAAAAAAAAAAAAAAAAAAAAAAAAAAAAAAAAAAAAAAAAAAAAAAAAAAAAAAAAAAAAAAAAAAAAAAAAAAAAAAAAAAAAAAAAAAAAAAAAAAAAAAAAAAAAAAAAAAAAAAAAAAAAAAAAAAAAAAAAAAAAAAAAAAAAAAAAAAAAAAAAAAAAAAAAAAAAAAAAAAAAAAAAAAAAAAAAAAAAAAAAAAAAAAAAAAAAAAAAAAAAAAAAAAAAAAAAAAAAAAAAAAAAAAAAAAAAAAAAAAAAAAAAAAAAAAAAAAAAAAAAAAAAAAAAAAAAAAAAAAAAAAAAAAAAAAAAAAAAAAAAAAAAAAAAAAAAAAAAAAAAAAAAAAAAAAAAAAAAAAAAAAAAAAAAAAAAAAAAAAAAAAAAAAAAAAAAAAAAAAAAAAAAAAAAAAAAAAAAAAAAAAAAAAAAAAAAAAAAAAAAAAAAAAAAAAAAAAAAAAAAAAAAAAAAAAAAAAAAAAAAAAAAAAAAAAAAAAAAAAAAAAAAAAAAAAAAAAAAAAAAAAAAAAAAAAAAAAAAAAAAAAAAAAAAAAAAAAAAAAAAAAAAAAAAAAAAAAAAAAAAAAAAAAAAAAAAAAAAAAAAAAAAAAAAAAAAAAAAAAAAAAAAAAAAAAAAAAAAAAAAAAAAAAAAAAAAAAAAAAAAAAAAAAAAAAAAAAAAAAAAAAAAAAAAAAAAAAAAAAAAAAAAAAAAAAAAAAAAAAAAAAAAAAAAAAAAAAAAAAAAAAAAAAAAAAAAAAAAAAAAAAAAAAAAAAAAAAAAAAAAAAAAAAAAAAAAAAAAAAAAAAAAAAAAAAAAAAAAAAAAAAAAAAAAAAAAAAAAAAAAAAAAAAAAAAAAAAAAAAAAAAAAAAAAAAAAAAAAAAAAAAAAAAAAAAAAAAAAAAAAAAAAAAAAAAAAAAAAAAAAAAAAAAAAAAAAAAAAAAAAAAAAAAAAAAAAAAAAAAAAAAAAAAAAAAAAAAAAAAAAAAAAAAAAAAAAAAAAAAAAAAAAAAAAAAAAAAAAAAAAAAAAAAAAAAAAAAAAAAAAAAAAAAAAAAAAAAAAAAAAAAAAAAAAAAAAAAAAAAAAAAAAAAAAAAAAAAAAAAAAAAAAAAAAAAAAAAAAAAAAAAAAAAAAAAAAAAAAAAAAAAAAAAAAAAAAAAAAAAAAAAAAAAAAAAAAAAAAAAAAAAAAAAAAAAAAAAAAAAAAAAAAAAAAAAAAAAAAAAAAAAAAAAAAAAAAAAAAAAAAAAAAAAAAAAAAAAAAAAAAAAAAAAAAAAAAAAAAAAAAAAAAAAAAAAAAAAAAAAAAAAAAAAAAAAAAAAAAAAAAAAAAAAAAAAAAAAAAAAAAAAAAAAAAAAAAAAAAAAAAAAAAAAAAAAAAAAAAAAAAAAAAAAAAAAAAAAAAAAAAAAAAAAAAAAAAAAAAAAAAAAAAAAAAAAAAAAAAAAAAAAAAAAAAAAAAAAAAAAAAAAAAAAAAAAAAAAAAAAAAAAAAAAAAAAAAAAAAAAAAAAAAAAAAAAAAAAAAAAAAAAAAAAAAAAAAAAAAAAAAAAAAAAAAAAAAAAAAAAAAAAAAAAAAAAAAAAAAAAAAAAAAAAAAAAAAAAAAAAAAAAAAAAAAAAAAAAAAAAAAAAAAAAAAAAAAAAAAAAAAAAAAAAAAAAAAAAAAAAAAAAAAAAAAAAAAAAAAAAAAAAAAAAAAAAAAAAAAAAAAAAAAAAAAAAAAAAAAAAAAAAAAAAAAAAAAAAAAAAAAAAAAAAAAAAAAAAAAAAAAAAAAAAAAAAAAAAAAAAAAAAAAAAAAAAAAAAAAAAAAAAAAAAAAAAAAAAAAAAAAAAAAAAAAAAAAAAAAAAAAAAAAAAAAAAAAAAAAAAAAAAAAAAAAAAAAAAAAAAAAAAAAAAAAAAAAAAAAAAAAAAAAAAAAAAAAAAAAAAAAAAAAAAAAAAAAAAAAAAAAAAAAAAAAAAAAAAAAAAAAAAAAAAAAAAAAAAAAAAAAAAAAAAAAAAAAAAAAAAAAAAAAAAAAAAAAAAAAAAAAAAAAAAAAAAAAAAAAAAAAAAAAAAAAAAAAAAAAAAAAAAAAAAAAAAAAAAAAAAAAAAAAAAAAAAAAAAAAAAAAAAAAAAAAAAAAAAAAAAAAAAAAAAAAAAAAAAAAAAAAAAAAAAAAAAAAAAAAAAAAAAAAAAAAAAAAAAAAAAAAAAAAAAAAAAAAAAAAAAAAAAAAAAAAAAAAAAAAAAAAAAAAAAAAAAAAAAAAAAAAAAAAAAAAAAAAAAAAAAAAAAAAAAAAAAAAAAAAAAAAAAAAAAAAAAAAAAAAAAAAAAAAAAAAAAAAAAAAAAAAAAAAAAAAAAAAAAAAAAAAAAAAAAAAAAAAAAAAAAAAAAAAAAAAAAAAAAAAAAAAAAAAAAAAAAAAAAAAAAAAAAAAAAAAAAAAAAAAAAAAAAAAAAAAAAAAAAAAAAAAAAAAAAAAAAAAAAAAAAAAAAAAAAAAAAAAAAAAAAAAAAAAAAAAAAAAAAAAAAAAAAAAAAAAAAAAAAAAAAAAAAAAAAAAAAAAAAAAAAAAAAAAAAAAAAAAAAAAAAAAAAAAAAAAAAAAAAAAAAAAAAAAAAAAAAAAAAAAAAAAAAAAAAAAAAAAAAAAAAAAAAAAAAAAAAAAAAAAAAAAAAAAAAAAAAAAAAAAAAAAAAAAAAAAAAAAAAAAAAAAAAAAAAAAAAAAAAAAAAAAAAAAAAAAAAAAAAAAAAAAAAAAAAAAAAAAAAAAAAAAAAAAAAAAAAAAAAAAAAAAAAAAAAAAAAAAAAAAAAAAAAAAAAAAAAAAAAAAAAAAAAAAAAAAAAAAAAAAAAAAAAAAAAAAAAAAAAAAAAAAAAAAAAAAAAAAAAAAAAAAAAAAAAAAAAAAAAAAAAAAAAAAAAAAAAAAAAAAAAAAAAAAAAAAAAAAAAAAAAAAAAAAAAAAAAAAAAAAAAAAAAAAAAAAAAAAAAAAAAAAAAAAAAAAAAAAAAAAAAAAAAAAAAAAAAAAAAAAAAAAAAAAAAAAAAAAAAAAAAAAAAAAAAAAAAAAAAAAAAAAAAAAAAAAAAAAAAAAAAAAAAAAAAAAAAAAAAAAAAAAAAAAAAAAAAAAAAAAAAAAAAAAAAAAAAAAAAAAAAAAAAAAAAAAAAAAAAAAAAAAAAAAAAAAAAAAAAAAAAAAAAAAAAAAAAAAAAAAAAAAAAAAAAAAAAAAAAAAPZYQLKHkjy51CvYf/wrsQsWO75PfHFCuuRFf+V5yXdQ8jOSdj6mg9st//RER+QtIaLqoczF9rrEGNDr6n7PLG6CXlE=</c2pa:manifest></metadata>
  <defs>
    <radialGradient id="bg" cx="50%" cy="45%" r="70%">
      <stop offset="0" stop-color="#A9C099"/>
      <stop offset="1" stop-color="#819579"/>
    </radialGradient>
    <mask id="gap" maskUnits="userSpaceOnUse" x="-8" y="-8" width="80" height="80">
      <rect x="-8" y="-8" width="80" height="80" fill="#fff"/>
      <path d="M19 7 C23 27 34 40 51 46" fill="none" stroke="#000" stroke-width="8.75"/>
    </mask>
  </defs>
  <rect width="64" height="64" rx="12" fill="url(#bg)"/>
  <g fill="none" stroke="#2F3A2A" stroke-opacity=".35" stroke-width="1">
    <path d="M6 10 C10 30 22 48 40 60"/>
    <path d="M58 8 C54 28 44 44 24 60"/>
    <path d="M2 40 C20 36 44 38 62 46"/>
  </g>
  <g transform="translate(-3 0)">
    <polygon points="25,20 31,14 37,20 31,26" fill="#7B3FA6"/>
    <polygon points="29.9,48.2 34.4,44.4 41.1,47.4 36.6,51.9" fill="#EE7A3C"/>
    <polygon points="6,34 14,30 18,36 10,40" fill="#D91E12"/>
    <polygon points="47,27 55,29 53,36 45,34" fill="#1F7A2B"/>
    <g fill="#1B1B1B">
      <g mask="url(#gap)">
        <path d="M7.00,56.00 L7.67,55.77 L8.35,55.55 L9.02,55.32 L9.69,55.09 L10.36,54.85 L11.02,54.62 L11.69,54.38 L12.35,54.13 L13.01,53.89 L13.68,53.63 L14.34,53.38 L14.99,53.12 L15.65,52.85 L16.31,52.58 L16.96,52.30 L17.61,52.02 L18.26,51.73 L18.91,51.44 L19.55,51.14 L20.19,50.83 L20.83,50.51 L21.47,50.19 L22.10,49.86 L22.73,49.52 L23.36,49.17 L23.98,48.81 L24.60,48.45 L25.22,48.08 L25.83,47.69 L26.43,47.30 L27.03,46.90 L27.63,46.49 L28.22,46.07 L28.80,45.64 L29.38,45.20 L29.94,44.75 L30.51,44.29 L31.06,43.82 L31.61,43.34 L32.15,42.85 L32.68,42.35 L33.20,41.84 L33.71,41.31 L34.21,40.78 L34.71,40.24 L35.20,39.69 L35.68,39.14 L36.16,38.58 L36.63,38.02 L37.10,37.45 L37.57,36.87 L38.02,36.29 L38.47,35.70 L38.92,35.10 L39.36,34.50 L39.79,33.90 L40.22,33.29 L40.65,32.67 L41.07,32.05 L41.48,31.42 L41.88,30.79 L42.28,30.15 L42.68,29.51 L43.07,28.86 L43.45,28.20 L43.83,27.55 L44.20,26.88 L44.57,26.21 L44.92,25.54 L45.28,24.86 L45.63,24.17 L45.97,23.48 L46.30,22.78 L46.63,22.08 L46.95,21.38 L47.27,20.67 L47.58,19.95 L47.89,19.23 L48.18,18.51 L48.48,17.78 L44.52,16.22 L44.25,16.91 L43.96,17.60 L43.68,18.28 L43.38,18.96 L43.08,19.63 L42.78,20.29 L42.46,20.96 L42.15,21.61 L41.83,22.27 L41.50,22.91 L41.16,23.56 L40.82,24.19 L40.48,24.83 L40.13,25.45 L39.77,26.08 L39.41,26.69 L39.05,27.30 L38.67,27.91 L38.30,28.51 L37.91,29.11 L37.53,29.70 L37.13,30.28 L36.73,30.86 L36.33,31.44 L35.92,32.01 L35.51,32.57 L35.09,33.13 L34.66,33.68 L34.24,34.23 L33.80,34.77 L33.36,35.30 L32.92,35.83 L32.47,36.36 L32.02,36.88 L31.56,37.39 L31.09,37.90 L30.63,38.40 L30.16,38.90 L29.69,39.40 L29.23,39.90 L28.76,40.40 L28.29,40.89 L27.81,41.39 L27.34,41.88 L26.86,42.36 L26.38,42.85 L25.90,43.33 L25.41,43.81 L24.92,44.29 L24.43,44.77 L23.93,45.24 L23.43,45.70 L22.92,46.16 L22.41,46.62 L21.89,47.08 L21.37,47.53 L20.84,47.97 L20.31,48.41 L19.77,48.84 L19.23,49.27 L18.68,49.69 L18.12,50.10 L17.56,50.51 L16.99,50.91 L16.41,51.30 L15.83,51.68 L15.24,52.06 L14.65,52.42 L14.05,52.78 L13.44,53.13 L12.82,53.47 L12.20,53.79 L11.57,54.11 L10.94,54.42 L10.30,54.71 L9.65,54.99 L9.00,55.26 L8.34,55.52 L7.67,55.77 L7.00,56.00Z"/>
        <polygon points="49.15,10.28 50.51,19.12 42.13,15.81"/>
      </g>
      <path d="M19.00,7.00 L19.15,7.75 L19.30,8.49 L19.45,9.23 L19.60,9.96 L19.76,10.69 L19.91,11.41 L20.07,12.13 L20.23,12.84 L20.39,13.55 L20.56,14.26 L20.73,14.96 L20.90,15.65 L21.08,16.34 L21.26,17.03 L21.45,17.71 L21.64,18.39 L21.83,19.07 L22.04,19.74 L22.25,20.40 L22.46,21.06 L22.68,21.72 L22.91,22.37 L23.15,23.02 L23.39,23.66 L23.64,24.30 L23.90,24.93 L24.17,25.55 L24.44,26.17 L24.73,26.79 L25.03,27.40 L25.33,28.00 L25.64,28.59 L25.97,29.18 L26.30,29.76 L26.65,30.33 L27.00,30.90 L27.37,31.46 L27.74,32.00 L28.13,32.54 L28.53,33.07 L28.93,33.59 L29.35,34.10 L29.79,34.60 L30.23,35.09 L30.68,35.57 L31.14,36.04 L31.60,36.51 L32.07,36.97 L32.55,37.42 L33.03,37.87 L33.52,38.31 L34.01,38.74 L34.51,39.16 L35.02,39.58 L35.53,39.99 L36.05,40.40 L36.58,40.79 L37.11,41.18 L37.65,41.57 L38.19,41.94 L38.74,42.31 L39.30,42.67 L39.86,43.03 L40.43,43.38 L41.00,43.72 L41.58,44.05 L42.17,44.38 L42.76,44.70 L43.35,45.02 L43.96,45.32 L44.57,45.62 L45.18,45.91 L45.80,46.20 L46.42,46.48 L47.05,46.75 L47.69,47.01 L48.33,47.27 L48.98,47.52 L49.63,47.77 L50.29,48.00 L51.71,44.00 L51.10,43.78 L50.49,43.55 L49.89,43.32 L49.30,43.08 L48.71,42.84 L48.13,42.59 L47.55,42.33 L46.98,42.07 L46.42,41.80 L45.86,41.52 L45.31,41.24 L44.76,40.95 L44.22,40.66 L43.68,40.36 L43.15,40.05 L42.63,39.74 L42.11,39.42 L41.60,39.10 L41.09,38.77 L40.59,38.43 L40.09,38.09 L39.60,37.74 L39.12,37.38 L38.64,37.02 L38.17,36.66 L37.70,36.28 L37.24,35.90 L36.78,35.52 L36.33,35.12 L35.89,34.73 L35.45,34.32 L35.02,33.91 L34.59,33.49 L34.17,33.07 L33.75,32.64 L33.34,32.20 L32.94,31.76 L32.53,31.32 L32.13,30.88 L31.72,30.43 L31.32,29.98 L30.92,29.52 L30.52,29.06 L30.12,28.60 L29.73,28.13 L29.33,27.65 L28.94,27.17 L28.55,26.69 L28.16,26.20 L27.78,25.70 L27.39,25.19 L27.01,24.68 L26.64,24.16 L26.27,23.63 L25.90,23.10 L25.54,22.56 L25.18,22.01 L24.82,21.45 L24.48,20.88 L24.13,20.31 L23.80,19.73 L23.47,19.14 L23.14,18.54 L22.83,17.93 L22.52,17.31 L22.22,16.68 L21.92,16.05 L21.64,15.40 L21.36,14.75 L21.09,14.09 L20.83,13.42 L20.59,12.74 L20.35,12.05 L20.12,11.35 L19.91,10.65 L19.70,9.94 L19.51,9.21 L19.33,8.48 L19.16,7.75 L19.00,7.00Z"/>
      <polygon points="57.81,48.40 49.03,50.08 52.03,41.59"/>
    </g>
  </g>
</svg>
